<?xml version="1.0" encoding="UTF-8"?>
<svg fill="none" viewBox="0 0 88 49" xmlns="http://www.w3.org/2000/svg">
    <g clip-path="url(#a)">
        <path d="m88 44.294h-4v4.0264h4v-4.0264z" fill="#559821" />
        <path d="m83.998 44.294h-4v4.0264h4v-4.0264z" fill="#559821" />
        <path d="m80 44.294h-4v4.0264h4v-4.0264z" fill="#559821" />
        <path d="m75.998 44.294h-4v4.0264h4v-4.0264z" fill="#559821" />
        <path d="m44 44.294h-4v4.0264h4v-4.0264z" fill="#EE2722" />
        <path d="m40.002 44.294h-4v4.0264h4v-4.0264z" fill="#EE2722" />
        <path d="m36 44.294h-4v4.0264h4v-4.0264z" fill="#EE2722" />
        <path d="m32.002 44.294h-4v4.0264h4v-4.0264z" fill="#EE2722" />
        <path d="m28 44.294h-4v4.0264h4v-4.0264z" fill="#EE2722" />
        <path d="m24.002 44.294h-4v4.0264h4v-4.0264z" fill="#EE2722" />
        <path d="m20 44.294h-4v4.0264h4v-4.0264z" fill="#EE2722" />
        <path d="m88 40.267h-4v4.0264h4v-4.0264z" fill="#559821" />
        <path d="m75.998 40.267h-4v4.0264h4v-4.0264z" fill="#559821" />
        <path d="m72 40.267h-4v4.0264h4v-4.0264z" fill="#559821" />
        <path d="m51.998 40.267h-4v4.0264h4v-4.0264z" fill="#EE2722" />
        <path d="m48 40.267h-4v4.0264h4v-4.0264z" fill="#EE2722" />
        <path d="m44 40.267h-4v4.0264h4v-4.0264z" fill="#EE2722" />
        <path d="m40.002 40.267h-4v4.0264h4v-4.0264z" fill="#EE2722" />
        <path d="m36 40.267h-4v4.0264h4v-4.0264z" fill="#EE2722" />
        <path d="m32.002 40.267h-4v4.0264h4v-4.0264z" fill="#EE2722" />
        <path d="m28 40.267h-4v4.0264h4v-4.0264z" fill="#EE2722" />
        <path d="m24.002 40.267h-4v4.0264h4v-4.0264z" fill="#EE2722" />
        <path d="m20 40.267h-4v4.0264h4v-4.0264z" fill="#EE2722" />
        <path d="m16.002 40.267h-4v4.0264h4v-4.0264z" fill="#EE2722" />
        <path d="m12 40.267h-4v4.0264h4v-4.0264z" fill="#EE2722" />
        <path d="m88 36.24h-4v4.0264h4v-4.0264z" fill="#559821" />
        <path d="m72 36.24h-4v4.0264h4v-4.0264z" fill="#5C9C2B" />
        <path d="m59.998 36.24h-4v4.0264h4v-4.0264z" fill="#EE2722" />
        <path d="m56 36.24h-4v4.0264h4v-4.0264z" fill="#EE2722" />
        <path d="m51.998 36.24h-4v4.0264h4v-4.0264z" fill="#EE2722" />
        <path d="m48 36.24h-4v4.0264h4v-4.0264z" fill="#EE2722" />
        <path d="m44 36.24h-4v4.0264h4v-4.0264z" fill="#EE2722" />
        <path d="m40.002 36.24h-4v4.0264h4v-4.0264z" fill="#EE2722" />
        <path d="m36 36.24h-4v4.0264h4v-4.0264z" fill="#EE2722" />
        <path d="m32.002 36.24h-4v4.0264h4v-4.0264z" fill="#EE2722" />
        <path d="m28 36.24h-4v4.0264h4v-4.0264z" fill="#EE2722" />
        <path d="m24.002 36.24h-4v4.0264h4v-4.0264z" fill="#EE2722" />
        <path d="m20 36.24h-4v4.0264h4v-4.0264z" fill="#EE2722" />
        <path d="m16.002 36.24h-4v4.0264h4v-4.0264z" fill="#EE2722" />
        <path d="m12 36.24h-4v4.0264h4v-4.0264z" fill="#EE2722" />
        <path d="m8.002 36.24h-4v4.0264h4v-4.0264z" fill="#EE2722" />
        <path d="m4 36.24h-4v4.0264h4v-4.0264z" fill="#EE2722" />
        <path d="m88 32.214h-4v4.0264h4v-4.0264z" fill="#559821" />
        <path d="m83.998 32.214h-4v4.0264h4v-4.0264z" fill="#559821" />
        <path d="m80 32.214h-4v4.0264h4v-4.0264z" fill="#559821" />
        <path d="m64 32.214h-4v4.0264h4v-4.0264z" fill="#EE2722" />
        <path d="m59.998 32.214h-4v4.0264h4v-4.0264z" fill="#EE2722" />
        <path d="m56 32.214h-4v4.0264h4v-4.0264z" fill="#EE2722" />
        <path d="m51.998 32.214h-4v4.0264h4v-4.0264z" fill="#EE2722" />
        <path d="m48 32.214h-4v4.0264h4v-4.0264z" fill="#EE2722" />
        <path d="m44 32.214h-4v4.0264h4v-4.0264z" fill="#EE2722" />
        <path d="m40.002 32.214h-4v4.0264h4v-4.0264z" fill="#EE2722" />
        <path d="m36 32.214h-4v4.0264h4v-4.0264z" fill="#EE2722" />
        <path d="m32.002 32.214h-4v4.0264h4v-4.0264z" fill="#fff" />
        <path d="m28 32.214h-4v4.0264h4v-4.0264z" fill="#fff" />
        <path d="m24.002 32.214h-4v4.0264h4v-4.0264z" fill="#EE2722" />
        <path d="m20 32.214h-4v4.0264h4v-4.0264z" fill="#EE2722" />
        <path d="m16.002 32.214h-4v4.0264h4v-4.0264z" fill="#EE2722" />
        <path d="m12 32.214h-4v4.0264h4v-4.0264z" fill="#EE2722" />
        <path d="m8.002 32.214h-4v4.0264h4v-4.0264z" fill="#EE2722" />
        <path d="m4 32.214h-4v4.0264h4v-4.0264z" fill="#EE2722" />
        <path d="m83.998 28.186h-4v4.0264h4v-4.0264z" fill="#559821" />
        <path d="m80 28.186h-4v4.0264h4v-4.0264z" fill="#559821" />
        <path d="m75.998 28.186h-4v4.0264h4v-4.0264z" fill="#559821" />
        <path d="m64 28.186h-4v4.0264h4v-4.0264z" fill="#EE2722" />
        <path d="m59.998 28.186h-4v4.0264h4v-4.0264z" fill="#EE2722" />
        <path d="m56 28.186h-4v4.0264h4v-4.0264z" fill="#EE2722" />
        <path d="m51.998 28.186h-4v4.0264h4v-4.0264z" fill="#EE2722" />
        <path d="m48 28.186h-4v4.0264h4v-4.0264z" fill="#EE2722" />
        <path d="m44 28.186h-4v4.0264h4v-4.0264z" fill="#EE2722" />
        <path d="m40.002 28.186h-4v4.0264h4v-4.0264z" fill="#EE2722" />
        <path d="m36 28.186h-4v4.0264h4v-4.0264z" fill="#EE2722" />
        <path d="m32.002 28.186h-4v4.0264h4v-4.0264z" fill="#EE2722" />
        <path d="m28 28.186h-4v4.0264h4v-4.0264z" fill="#EE2722" />
        <path d="m24.002 28.186h-4v4.0264h4v-4.0264z" fill="#EE2722" />
        <path d="m16.002 28.186h-4v4.0264h4v-4.0264z" fill="#EE2722" />
        <path d="m12 28.186h-4v4.0264h4v-4.0264z" fill="#EE2722" />
        <path d="m8.002 28.186h-4v4.0264h4v-4.0264z" fill="#EE2722" />
        <path d="m75.998 24.16h-4v4.0264h4v-4.0264z" fill="#559821" />
        <path d="m72 24.16h-4v4.0264h4v-4.0264z" fill="#559821" />
        <path d="m64 24.16h-4v4.0264h4v-4.0264z" fill="#EE2722" />
        <path d="m59.998 24.16h-4v4.0264h4v-4.0264z" fill="#EE2722" />
        <path d="m56 24.16h-4v4.0264h4v-4.0264z" fill="#EE2722" />
        <path d="m51.998 24.16h-4v4.0264h4v-4.0264z" fill="#EE2722" />
        <path d="m48 24.16h-4v4.0264h4v-4.0264z" fill="#EE2722" />
        <path d="m44 24.16h-4v4.0264h4v-4.0264z" fill="#fff" />
        <path d="m40.002 24.16h-4v4.0264h4v-4.0264z" fill="#fff" />
        <path d="m36 24.16h-4v4.0264h4v-4.0264z" fill="#EE2722" />
        <path d="m88 20.134h-4v4.0264h4v-4.0264z" fill="#559821" />
        <path d="m75.998 20.134h-4v4.0264h4v-4.0264z" fill="#559821" />
        <path d="m72 20.134h-4v4.0264h4v-4.0264z" fill="#559821" />
        <path d="m64 20.134h-4v4.0264h4v-4.0264z" fill="#EE2722" />
        <path d="m59.998 20.134h-4v4.0264h4v-4.0264z" fill="#EE2722" />
        <path d="m56 20.134h-4v4.0264h4v-4.0264z" fill="#EE2722" />
        <path d="m51.998 20.134h-4v4.0264h4v-4.0264z" fill="#EE2722" />
        <path d="m48 20.134h-4v4.0264h4v-4.0264z" fill="#fff" />
        <path d="m44 20.134h-4v4.0264h4v-4.0264z" fill="#fff" />
        <path d="m40.002 20.134h-4v4.0264h4v-4.0264z" fill="#EE2722" />
        <path d="m88 16.106h-4v4.0264h4v-4.0264z" fill="#559821" />
        <path d="m83.998 16.106h-4v4.0264h4v-4.0264z" fill="#559821" />
        <path d="m80 16.106h-4v4.0264h4v-4.0264z" fill="#559821" />
        <path d="m75.998 16.106h-4v4.0264h4v-4.0264z" fill="#559821" />
        <path d="m59.998 16.106h-4v4.0264h4v-4.0264z" fill="#EE2722" />
        <path d="m56 16.106h-4v4.0264h4v-4.0264z" fill="#EE2722" />
        <path d="m51.998 16.106h-4v4.0264h4v-4.0264z" fill="#fff" />
        <path d="m48 16.106h-4v4.0264h4v-4.0264z" fill="#fff" />
        <path d="m44 16.106h-4v4.0264h4v-4.0264z" fill="#EE2722" />
        <path d="m72 12.08h-4v4.0264h4v-4.0264z" fill="#559821" />
        <path d="m67.998 12.08h-4v4.0264h4v-4.0264z" fill="#559821" />
        <path d="m56 12.08h-4v4.0264h4v-4.0264z" fill="#EE2722" />
        <path d="m51.998 12.08h-4v4.0264h4v-4.0264z" fill="#EE2722" />
        <path d="m48 12.08h-4v4.0264h4v-4.0264z" fill="#EE2722" />
        <path d="m72 8.0537h-4v4.0264h4v-4.0264z" fill="#559821" />
        <path d="m56 8.0537h-4v4.0264h4v-4.0264z" fill="#EE2722" />
        <path d="m51.998 8.0537h-4v4.0264h4v-4.0264z" fill="#EE2722" />
        <path d="m72 4.0264h-4v4.0264h4v-4.0264z" fill="#559821" />
        <path d="m67.998 4.0264h-4v4.0264h4v-4.0264z" fill="#559821" />
        <path d="M72 0H68V4.0264H72V0Z" fill="#559821" />
        <path d="m67.998 0h-4v4.0264h4v-4.0264z" fill="#559821" />
    </g>
    <defs>
        <clipPath id="a">
            <rect width="88" height="48.32" fill="#fff" />
        </clipPath>
    </defs>
</svg>