<?xml version="1.0" encoding="UTF-8"?><svg id="Layer_1" xmlns="http://www.w3.org/2000/svg" viewBox="0 0 17 17"><defs><style>.cls-1{fill:#7a7a7a;}.cls-1,.cls-2{stroke-width:0px;}.cls-2{fill:#f8ac01;}</style></defs><rect class="cls-1" y="6" width="1" height="5"/><rect class="cls-1" x="2" y="3" width="1" height="1"/><rect class="cls-1" x="3" y="2" width="1" height="1"/><rect class="cls-1" x="4" y="1" width="2" height="1"/><rect class="cls-1" x="6" width="5" height="1"/><rect class="cls-1" x="1" y="4" width="1" height="2"/><rect class="cls-1" x="6" y="16" width="5" height="1"/><rect class="cls-1" x="3" y="14" width="1" height="1"/><rect class="cls-1" x="2" y="13" width="1" height="1"/><rect class="cls-1" x="1" y="11" width="1" height="2"/><rect class="cls-1" x="4" y="15" width="2" height="1"/><rect class="cls-1" x="16" y="6" width="1" height="5"/><rect class="cls-1" x="14" y="13" width="1" height="1"/><rect class="cls-1" x="13" y="14" width="1" height="1"/><rect class="cls-1" x="11" y="15" width="2" height="1"/><rect class="cls-1" x="15" y="11" width="1" height="2"/><rect class="cls-1" x="13" y="2" width="1" height="1"/><rect class="cls-1" x="14" y="3" width="1" height="1"/><rect class="cls-1" x="15" y="4" width="1" height="2"/><rect class="cls-1" x="11" y="1" width="2" height="1"/><rect class="cls-2" x="7" y="6" width="1" height="1"/><rect class="cls-2" x="7" y="9" width="3" height="1"/><polygon class="cls-2" points="10 10 10 11 7 11 7 10 6 10 6 12 11 12 11 10 10 10"/><polygon class="cls-2" points="10 10 10 11 7 11 7 10 6 10 6 12 11 12 11 10 10 10"/><polygon class="cls-2" points="10 10 10 11 7 11 7 10 6 10 6 12 11 12 11 10 10 10"/><rect class="cls-2" x="8" y="7" width="1" height="1"/><rect class="cls-2" x="9" y="6" width="1" height="1"/><rect class="cls-2" x="8" y="5" width="1" height="1"/></svg>