<?xml version="1.0" encoding="UTF-8"?>
<svg viewBox="0 0 422 40" xmlns="http://www.w3.org/2000/svg">
    <path
        d="m64 40h-6v-36h30v24h-18v12h-6zm12-18v-12h-6v12h6zm42 12h6v6h-30v-36h12v30h12zm36 6h-6v-12h-6v12h-12v-36h30v36h-6zm-6-18v-12h-6v12h6zm36 18h-6v-18h-12v-18h12v12h12v-12h12v18h-12v18h-6zm84 0h-6v-12h-6v-6h-6v18h-12v-36h12v6h6v6h6v-12h12v36h-6zm36 0h-24v-36h30v36h-6zm-6-6v-24h-6v24h6zm54 6h-6v-6h-6v-6h-6v6h-6v6h-12v-36h12v18h6v-6h6v6h6v-18h12v36h-6z"
        fill="#ED1C24" />
    <path
        d="m64 36h-6v-36h30v24h-18v12h-6zm12-18v-12h-6v12h6zm42 12h6v6h-30v-36h12v30h12zm36 6h-6v-12h-6v12h-12v-36h30v36h-6zm-6-18v-12h-6v12h6zm36 18h-6v-18h-12v-18h12v12h12v-12h12v18h-12v18h-6zm84 0h-6v-12h-6v-6h-6v18h-12v-36h12v6h6v6h6v-12h12v36h-6zm36 0h-24v-36h30v36h-6zm-6-6v-24h-6v24h6zm54 6h-6v-6h-6v-6h-6v6h-6v6h-12v-36h12v18h6v-6h6v6h6v-18h12v36h-6z"
        fill="#EEECE7" />
    <path
        d="m64 38h-6v-36h30v24h-18v12h-6zm12-18v-12h-6v12h6zm42 12h6v6h-30v-36h12v30h12zm36 6h-6v-12h-6v12h-12v-36h30v36h-6zm-6-18v-12h-6v12h6zm36 18h-6v-18h-12v-18h12v12h12v-12h12v18h-12v18h-6zm84 0h-6v-12h-6v-6h-6v18h-12v-36h12v6h6v6h6v-12h12v36h-6zm36 0h-24v-36h30v36h-6zm-6-6v-24h-6v24h6zm54 6h-6v-6h-6v-6h-6v6h-6v6h-12v-36h12v18h6v-6h6v6h6v-18h12v36h-6z"
        fill="#FFC60B" />
</svg>