<svg viewBox="0 0 102 36" fill="none" xmlns="http://www.w3.org/2000/svg">
  <g clip-path="url(#clip0_73_3925)">
    <path d="M88 34H86V36H88V34Z" fill="#141020" />
    <path d="M100 22H98V24H100V22Z" fill="#141020" />
    <path d="M94 30H92V32H94V30Z" fill="#141020" />
    <path d="M96 28H94V30H96V28Z" fill="#141020" />
    <path d="M98 26H96V28H98V26Z" fill="#141020" />
    <path d="M92 32H88V34H92V32Z" fill="#141020" />
    <path d="M88 0V2H92V4H94V6H96V8H98V12H100V22H98V26H96V28H94V30H92V32H88V34H86V32V28V26V8V6V4V2V0H88Z" fill="#ED1C24" />
  </g>
  <g clip-path="url(#clip1_73_3925)">
     <path d="M86 0H14V34H86V0Z" fill="#ED1C24" />
    <path d="M86 0H14V34H86V0Z" fill="#ED1C24" />
    <path d="M86 34H14V36H86V34Z" fill="#141020" />
  </g>
  <g clip-path="url(#clip2_73_3925)">
    <path d="M14 34H12V36H14V34Z" fill="#141020" />
    <path d="M2 22H0V24H2V22Z" fill="#141020" />
    <path d="M8 30H6V32H8V30Z" fill="#141020" />
    <path d="M6 28H4V30H6V28Z" fill="#141020" />
    <path d="M4 26H2V28H4V26Z" fill="#141020" />
    <path d="M12 32H8V34H12V32Z" fill="#141020" />
    <path d="M12 0V2H8V4H6V6H4V8H2V12H0V22H2V26H4V28H6V30H8V32H12V34H14V32V28V26V8V6V4V2V0H12Z" fill="#ED1C24" />
  </g>
  <path d="M23 24H21V22V20H19V22V24H17H15V22V20V18V16V14V12H17H19H21H23H25V14V16V18H23V20H25V22V24H23ZM21 18V16V14H19V16V18H21ZM35 24H33H31H29H27V22V20V18V16V14V12H29H31H33H35H37V14H35H33H31V16H33H35V18H33H31V20V22H33V20H35H37V22V24H35ZM47 24H45H43H41H39V22V20V18V16V14V12H41H43H45H47H49V14V16H47V18H49V20V22V24H47ZM45 22V20V18H43V20V22H45ZM45 16V14H43V16H45ZM59 24H57H55H53H51V22V20V18V16V14V12H53H55H57H59H61V14V16V18V20V22V24H59ZM57 22V20V18V16V14H55V16V18V20V22H57ZM71 24H69H67H65H63V22V20V18V16V14V12H65H67H69H71H73V14V16V18V20V22V24H71ZM69 22V20V18V16V14H67V16V18V20V22H69ZM81 24H79V22V20V18V16V14H77H75V12H77H79H81H83H85H87V14H85H83V16V18V20V22V24H81Z" fill="#140F1F" />
  <path d="M23 22H21V20V18H19V20V22H17H15V20V18V16V14V12V10H17H19H21H23H25V12V14V16H23V18H25V20V22H23ZM21 16V14V12H19V14V16H21ZM35 22H33H31H29H27V20V18V16V14V12V10H29H31H33H35H37V12H35H33H31V14H33H35V16H33H31V18V20H33V18H35H37V20V22H35ZM47 22H45H43H41H39V20V18V16V14V12V10H41H43H45H47H49V12V14H47V16H49V18V20V22H47ZM45 20V18V16H43V18V20H45ZM45 14V12H43V14H45ZM59 22H57H55H53H51V20V18V16V14V12V10H53H55H57H59H61V12V14V16V18V20V22H59ZM57 20V18V16V14V12H55V14V16V18V20H57ZM71 22H69H67H65H63V20V18V16V14V12V10H65H67H69H71H73V12V14V16V18V20V22H71ZM69 20V18V16V14V12H67V14V16V18V20H69ZM81 22H79V20V18V16V14V12H77H75V10H77H79H81H83H85H87V12H85H83V14V16V18V20V22H81Z" fill="#EEECE7" />
  <defs>
    <clipPath id="clip0_73_3925">
      <rect width="16" height="36" fill="white" transform="translate(84)" />
    </clipPath>
    <clipPath id="clip1_73_3925">
      <rect width="78" height="36" fill="white" transform="translate(12)" />
    </clipPath>
    <clipPath id="clip2_73_3925">
      <rect width="16" height="36" fill="white" />
    </clipPath>
  </defs>
</svg>
