<svg width="156" height="135" viewBox="0 0 156 135" fill="none" xmlns="http://www.w3.org/2000/svg">
<path fill-rule="evenodd" clip-rule="evenodd" d="M149.677 0H151.785V2.10824H153.892V63.2432H151.784V63.2431H149.677V0ZM90.6494 4.21746H92.7575V63.2443H90.6494V4.21746ZM156 4.21746H153.892V63.2443H156V4.21746ZM92.7577 2.10824H94.8649V0H96.973V63.2431H94.8658V63.2432H92.7577V2.10824ZM147.568 0H149.675V63.2431H147.567V8.43241H99.0822V63.2431H96.9741V0H99.0814H99.0822H147.567H147.568Z" fill="#FFC60B"/>
<path fill-rule="evenodd" clip-rule="evenodd" d="M40.0539 12.6491V10.541H37.9458V18.9734H31.6215V21.0815H25.2972V23.1896H21.081V25.2977H16.8648V27.4058H14.7567V29.5139H12.6486V31.622H10.5405V33.7301H8.43241V35.8382H6.32431V40.0544H4.2162V44.2706H2.1081V50.595H0V61.1355H6.32431V52.7031H8.43241V46.3787H10.5405V42.1625H12.6486V37.9463H14.7567V35.8382H16.8648V33.7301H18.9729V31.622H23.1891V29.5139H27.4053V27.4058H33.7296V25.2977H37.9458V31.622H40.0539V29.5139H42.162H44.2701V27.4058H46.3782V25.2977H48.4863H50.5945V18.9734H48.4863V16.8653H46.3782H44.2701V14.7572H42.162V12.6491H40.0539Z" fill="#FFC60B"/>
<path fill-rule="evenodd" clip-rule="evenodd" d="M149.676 69.5684H151.784V71.6765H153.892V73.7846H156.001V130.703H153.892V132.811H151.784V134.92H149.676H147.568H132.811H128.595H29.5144H25.2982V132.811H23.1901V130.703H21.082V73.7846H23.1901V71.6765H25.2982V69.5684H29.5144H128.595H147.568H149.676ZM128.595 78.0008V126.487H29.5144V78.0008H128.595ZM145.461 96.9725H139.136V99.0806H137.028V105.405H139.136V107.513H145.461V105.405H147.569V99.0806H145.461V96.9725Z" fill="#FFC60B"/>
</svg>
